<svg width="3221" height="6944" viewBox="0 0 3221 6944" fill="none" xmlns="http://www.w3.org/2000/svg">
<path d="M1757.5 1036C1858 1034.5 2059.86 1054.77 1936.66 1210.5C1782.65 1405.17 2328.28 1557.37 2240.27 1405.17C2152.27 1252.98 1483.43 1426.41 2024.66 1684.79C2457.64 1891.49 1606.64 1945.52 1127.01 1946.7C959.15 1954.37 701.509 2031.31 1013.86 2277.71C1404.29 2585.7 2110.71 2716.69 2067.68 2904.32C2024.66 3091.94 480.643 3908 1013.86 3908C2187 3908 1118.14 4379.89 1579 4540C1719.55 4588.83 2313.95 4506.17 2283 4816C2225.34 5393.28 806.2 5119.2 963 5436C1159 5832 2283 5980 2313 6116" stroke="#2BB32A" stroke-width="1.5" stroke-linecap="square"/>
<g filter="url(#filter0_f_1_9)">
<circle cx="1749" cy="1046" r="246" fill="#2BB32A"/>
</g>
<g filter="url(#filter1_f_1_9)">
<circle cx="2175" cy="2952" r="246" fill="#2BB32A"/>
</g>
<g filter="url(#filter2_f_1_9)">
<circle cx="1046" cy="4901" r="246" fill="#2BB32A"/>
</g>
<g filter="url(#filter3_f_1_9)">
<circle cx="1094" cy="4936" r="246" fill="#2BB32A"/>
</g>
<g filter="url(#filter4_f_1_9)">
<circle cx="2188" cy="5951" r="193" fill="#2BB32A"/>
</g>
<path d="M1381.55 1566.89C1381.85 1565.97 1383.15 1565.97 1383.45 1566.89L1388.16 1581.2C1388.26 1581.51 1388.49 1581.74 1388.8 1581.84L1403.11 1586.55C1404.03 1586.85 1404.03 1588.15 1403.11 1588.45L1388.8 1593.16C1388.49 1593.26 1388.26 1593.49 1388.16 1593.8L1383.45 1608.11C1383.15 1609.03 1381.85 1609.03 1381.55 1608.11L1376.84 1593.8C1376.74 1593.49 1376.51 1593.26 1376.2 1593.16L1361.89 1588.45C1360.97 1588.15 1360.97 1586.85 1361.89 1586.55L1376.2 1581.84C1376.51 1581.74 1376.74 1581.51 1376.84 1581.2L1381.55 1566.89Z" fill="#2BB32A"/>
<path d="M1925.87 1192.39C1926 1191.44 1927.28 1191.2 1927.74 1192.05L1934.94 1205.29C1935.09 1205.57 1935.37 1205.76 1935.68 1205.81L1950.61 1207.87C1951.56 1208 1951.8 1209.28 1950.95 1209.74L1937.71 1216.94C1937.43 1217.09 1937.24 1217.37 1937.19 1217.68L1935.13 1232.61C1935 1233.56 1933.72 1233.8 1933.26 1232.95L1926.06 1219.71C1925.91 1219.43 1925.63 1219.24 1925.32 1219.2L1910.39 1217.13C1909.44 1217 1909.2 1215.72 1910.05 1215.26L1923.29 1208.06C1923.57 1207.91 1923.76 1207.64 1923.81 1207.32L1925.87 1192.39Z" fill="#2BB32A"/>
<path d="M2024.27 1846.59C2025.05 1846.03 2026.1 1846.79 2025.81 1847.71L2022.06 1859.42C2021.96 1859.72 2022.01 1860.05 2022.2 1860.31L2029.4 1870.28C2029.96 1871.06 2029.2 1872.11 2028.28 1871.82L2016.57 1868.07C2016.27 1867.97 2015.94 1868.02 2015.68 1868.21L2005.71 1875.41C2004.93 1875.97 2003.88 1875.21 2004.17 1874.29L2007.92 1862.58C2008.02 1862.28 2007.97 1861.95 2007.78 1861.69L2000.58 1851.72C2000.02 1850.94 2000.78 1849.89 2001.7 1850.18L2013.41 1853.93C2013.71 1854.03 2014.04 1853.98 2014.3 1853.79L2024.27 1846.59Z" fill="#2BB32A"/>
<path d="M1712.04 2458.38C1711.7 2457.47 1712.71 2456.66 1713.52 2457.19L1721.18 2462.16C1721.45 2462.33 1721.78 2462.37 1722.08 2462.26L1730.62 2459.04C1731.53 2458.7 1732.34 2459.71 1731.81 2460.52L1726.84 2468.18C1726.67 2468.45 1726.63 2468.78 1726.75 2469.08L1729.96 2477.62C1730.3 2478.53 1729.29 2479.34 1728.48 2478.81L1720.82 2473.84C1720.55 2473.67 1720.22 2473.63 1719.92 2473.75L1711.38 2476.96C1710.47 2477.3 1709.66 2476.29 1710.19 2475.48L1715.16 2467.82C1715.33 2467.55 1715.37 2467.22 1715.26 2466.92L1712.04 2458.38Z" fill="#2BB32A"/>
<path d="M1163.43 4045.98C1164.2 4045.4 1165.27 4046.15 1164.99 4047.07L1163.28 4052.78C1163.19 4053.08 1163.25 4053.41 1163.44 4053.67L1167.02 4058.43C1167.59 4059.21 1166.85 4060.27 1165.93 4059.99L1160.22 4058.28C1159.92 4058.19 1159.59 4058.25 1159.33 4058.44L1154.57 4062.02C1153.79 4062.6 1152.73 4061.85 1153.01 4060.93L1154.72 4055.22C1154.81 4054.92 1154.75 4054.59 1154.56 4054.33L1150.98 4049.57C1150.4 4048.79 1151.15 4047.73 1152.07 4048.01L1157.78 4049.72C1158.08 4049.81 1158.41 4049.75 1158.67 4049.56L1163.43 4045.98Z" fill="#2BB32A"/>
<path d="M1299.42 2239.17C1300.04 2238.42 1301.24 2238.89 1301.19 2239.85L1300.87 2245.81C1300.85 2246.12 1300.99 2246.43 1301.23 2246.63L1305.83 2250.42C1306.58 2251.04 1306.11 2252.25 1305.14 2252.19L1299.19 2251.87C1298.88 2251.86 1298.57 2251.99 1298.37 2252.24L1294.58 2256.83C1293.96 2257.58 1292.75 2257.11 1292.81 2256.14L1293.13 2250.19C1293.14 2249.88 1293.01 2249.57 1292.76 2249.37L1288.16 2245.58C1287.42 2244.96 1287.89 2243.75 1288.85 2243.81L1294.81 2244.13C1295.12 2244.14 1295.43 2244.01 1295.63 2243.76L1299.42 2239.17Z" fill="#2BB32A"/>
<path d="M1398.62 2938.42C1398.55 2937.46 1399.75 2936.96 1400.38 2937.69L1404.27 2942.21C1404.48 2942.45 1404.79 2942.58 1405.1 2942.55L1411.05 2942.1C1412.01 2942.02 1412.51 2943.22 1411.78 2943.85L1407.26 2947.74C1407.02 2947.95 1406.9 2948.26 1406.92 2948.58L1407.38 2954.52C1407.45 2955.48 1406.25 2955.98 1405.62 2955.25L1401.73 2950.74C1401.52 2950.5 1401.21 2950.37 1400.89 2950.39L1394.95 2950.85C1393.99 2950.92 1393.49 2949.72 1394.22 2949.09L1398.73 2945.2C1398.97 2944.99 1399.1 2944.68 1399.08 2944.37L1398.62 2938.42Z" fill="#2BB32A"/>
<path d="M1012.5 3178.49C1013.01 3177.63 1014.33 3177.97 1014.36 3178.97L1014.8 3194.59C1014.81 3194.91 1014.96 3195.2 1015.22 3195.39L1027.09 3203.7C1027.85 3204.24 1027.54 3205.42 1026.62 3205.52L1012.21 3207.02C1011.89 3207.06 1011.61 3207.24 1011.45 3207.51L1003.48 3220.95C1002.97 3221.81 1001.65 3221.47 1001.62 3220.47L1001.18 3204.85C1001.17 3204.53 1001.01 3204.24 1000.75 3204.05L988.884 3195.74C988.127 3195.2 988.434 3194.02 989.354 3193.92L1003.77 3192.42C1004.09 3192.38 1004.37 3192.2 1004.53 3191.93L1012.5 3178.49Z" fill="#2BB32A"/>
<path d="M2079.18 3338.37C2079.22 3337.41 2080.47 3337.06 2081.01 3337.86L2090.02 3351.4C2090.2 3351.66 2090.49 3351.83 2090.81 3351.84L2107.05 3352.62C2108.01 3352.66 2108.36 3353.91 2107.55 3354.45L2094.02 3363.46C2093.76 3363.64 2093.59 3363.93 2093.58 3364.25L2092.8 3380.49C2092.75 3381.45 2091.5 3381.8 2090.97 3380.99L2081.96 3367.46C2081.78 3367.2 2081.49 3367.03 2081.17 3367.02L2064.93 3366.24C2063.97 3366.19 2063.62 3364.94 2064.42 3364.41L2077.96 3355.4C2078.22 3355.22 2078.38 3354.93 2078.4 3354.61L2079.18 3338.37Z" fill="#2BB32A"/>
<path d="M1569.05 4294.89C1569.35 4293.97 1570.65 4293.97 1570.95 4294.89L1571.82 4297.54C1571.92 4297.84 1572.16 4298.08 1572.46 4298.18L1575.11 4299.05C1576.03 4299.35 1576.03 4300.65 1575.11 4300.95L1572.46 4301.82C1572.16 4301.92 1571.92 4302.16 1571.82 4302.46L1570.95 4305.11C1570.65 4306.03 1569.35 4306.03 1569.05 4305.11L1568.18 4302.46C1568.08 4302.16 1567.84 4301.92 1567.54 4301.82L1564.89 4300.95C1563.97 4300.65 1563.97 4299.35 1564.89 4299.05L1567.54 4298.18C1567.84 4298.08 1568.08 4297.84 1568.18 4297.54L1569.05 4294.89Z" fill="#2BB32A"/>
<path d="M1676.91 3678.8C1677.47 3678.01 1678.71 3678.39 1678.73 3679.35L1678.8 3682.14C1678.81 3682.46 1678.97 3682.76 1679.23 3682.94L1681.51 3684.54C1682.3 3685.09 1681.93 3686.34 1680.96 3686.36L1678.17 3686.43C1677.86 3686.44 1677.56 3686.59 1677.38 3686.85L1675.78 3689.14C1675.22 3689.93 1673.98 3689.55 1673.96 3688.59L1673.89 3685.8C1673.88 3685.48 1673.72 3685.19 1673.46 3685L1671.18 3683.4C1670.39 3682.85 1670.76 3681.61 1671.73 3681.58L1674.52 3681.52C1674.83 3681.51 1675.13 3681.35 1675.31 3681.09L1676.91 3678.8Z" fill="#2BB32A"/>
<path d="M1854.05 3039.89C1854.35 3038.97 1855.65 3038.97 1855.95 3039.89L1858.8 3048.56C1858.9 3048.86 1859.14 3049.1 1859.44 3049.2L1868.11 3052.05C1869.03 3052.35 1869.03 3053.65 1868.11 3053.95L1859.44 3056.8C1859.14 3056.9 1858.9 3057.14 1858.8 3057.44L1855.95 3066.11C1855.65 3067.03 1854.35 3067.03 1854.05 3066.11L1851.2 3057.44C1851.1 3057.14 1850.86 3056.9 1850.56 3056.8L1841.89 3053.95C1840.97 3053.65 1840.97 3052.35 1841.89 3052.05L1850.56 3049.2C1850.86 3049.1 1851.1 3048.86 1851.2 3048.56L1854.05 3039.89Z" fill="#2BB32A"/>
<path d="M2206.3 2866.31C2206.14 2865.36 2207.28 2864.75 2207.98 2865.41L2221.46 2878.27C2221.69 2878.49 2222.01 2878.59 2222.33 2878.53L2240.68 2875.31C2241.63 2875.15 2242.24 2876.29 2241.58 2876.99L2228.72 2890.47C2228.5 2890.7 2228.4 2891.02 2228.46 2891.34L2231.68 2909.69C2231.84 2910.64 2230.7 2911.25 2230 2910.59L2216.51 2897.73C2216.29 2897.51 2215.96 2897.41 2215.65 2897.47L2197.3 2900.69C2196.35 2900.85 2195.73 2899.71 2196.4 2899.01L2209.26 2885.53C2209.48 2885.3 2209.58 2884.98 2209.52 2884.66L2206.3 2866.31Z" fill="#2BB32A"/>
<path d="M1068.05 4584.89C1068.35 4583.97 1069.65 4583.97 1069.95 4584.89L1075.77 4602.59C1075.87 4602.89 1076.11 4603.13 1076.41 4603.23L1094.11 4609.05C1095.03 4609.35 1095.03 4610.65 1094.11 4610.95L1076.41 4616.77C1076.11 4616.87 1075.87 4617.11 1075.77 4617.41L1069.95 4635.11C1069.65 4636.03 1068.35 4636.03 1068.05 4635.11L1062.23 4617.41C1062.13 4617.11 1061.89 4616.87 1061.59 4616.77L1043.89 4610.95C1042.97 4610.65 1042.97 4609.35 1043.89 4609.05L1061.59 4603.23C1061.89 4603.13 1062.13 4602.89 1062.23 4602.59L1068.05 4584.89Z" fill="#2BB32A"/>
<path d="M1100.05 4934.89C1100.35 4933.97 1101.65 4933.97 1101.95 4934.89L1107.77 4952.59C1107.87 4952.89 1108.11 4953.13 1108.41 4953.23L1126.11 4959.05C1127.03 4959.35 1127.03 4960.65 1126.11 4960.95L1108.41 4966.77C1108.11 4966.87 1107.87 4967.11 1107.77 4967.41L1101.95 4985.11C1101.65 4986.03 1100.35 4986.03 1100.05 4985.11L1094.23 4967.41C1094.13 4967.11 1093.89 4966.87 1093.59 4966.77L1075.89 4960.95C1074.97 4960.65 1074.97 4959.35 1075.89 4959.05L1093.59 4953.23C1093.89 4953.13 1094.13 4952.89 1094.23 4952.59L1100.05 4934.89Z" fill="#2BB32A"/>
<path d="M1754.05 5110.89C1754.35 5109.97 1755.65 5109.97 1755.95 5110.89L1761.77 5128.59C1761.87 5128.89 1762.11 5129.13 1762.41 5129.23L1780.11 5135.05C1781.03 5135.35 1781.03 5136.65 1780.11 5136.95L1762.41 5142.77C1762.11 5142.87 1761.87 5143.11 1761.77 5143.41L1755.95 5161.11C1755.65 5162.03 1754.35 5162.03 1754.05 5161.11L1748.23 5143.41C1748.13 5143.11 1747.89 5142.87 1747.59 5142.77L1729.89 5136.95C1728.97 5136.65 1728.97 5135.35 1729.89 5135.05L1747.59 5129.23C1747.89 5129.13 1748.13 5128.89 1748.23 5128.59L1754.05 5110.89Z" fill="#2BB32A"/>
<path d="M2167.05 4970.89C2167.35 4969.97 2168.65 4969.97 2168.95 4970.89L2169.82 4973.54C2169.92 4973.84 2170.16 4974.08 2170.46 4974.18L2173.11 4975.05C2174.03 4975.35 2174.03 4976.65 2173.11 4976.95L2170.46 4977.82C2170.16 4977.92 2169.92 4978.16 2169.82 4978.46L2168.95 4981.11C2168.65 4982.03 2167.35 4982.03 2167.05 4981.11L2166.18 4978.46C2166.08 4978.16 2165.84 4977.92 2165.54 4977.82L2162.89 4976.95C2161.97 4976.65 2161.97 4975.35 2162.89 4975.05L2165.54 4974.18C2165.84 4974.08 2166.08 4973.84 2166.18 4973.54L2167.05 4970.89Z" fill="#2BB32A"/>
<path d="M1418.05 5782.89C1418.35 5781.97 1419.65 5781.97 1419.95 5782.89L1425.77 5800.59C1425.87 5800.89 1426.11 5801.13 1426.41 5801.23L1444.11 5807.05C1445.03 5807.35 1445.03 5808.65 1444.11 5808.95L1426.41 5814.77C1426.11 5814.87 1425.87 5815.11 1425.77 5815.41L1419.95 5833.11C1419.65 5834.03 1418.35 5834.03 1418.05 5833.11L1412.23 5815.41C1412.13 5815.11 1411.89 5814.87 1411.59 5814.77L1393.89 5808.95C1392.97 5808.65 1392.97 5807.35 1393.89 5807.05L1411.59 5801.23C1411.89 5801.13 1412.13 5800.89 1412.23 5800.59L1418.05 5782.89Z" fill="#2BB32A"/>
<path d="M1362.05 5818.89C1362.35 5817.97 1363.65 5817.97 1363.95 5818.89L1369.77 5836.59C1369.87 5836.89 1370.11 5837.13 1370.41 5837.23L1388.11 5843.05C1389.03 5843.35 1389.03 5844.65 1388.11 5844.95L1370.41 5850.77C1370.11 5850.87 1369.87 5851.11 1369.77 5851.41L1363.95 5869.11C1363.65 5870.03 1362.35 5870.03 1362.05 5869.11L1356.23 5851.41C1356.13 5851.11 1355.89 5850.87 1355.59 5850.77L1337.89 5844.95C1336.97 5844.65 1336.97 5843.35 1337.89 5843.05L1355.59 5837.23C1355.89 5837.13 1356.13 5836.89 1356.23 5836.59L1362.05 5818.89Z" fill="#2BB32A"/>
<path d="M978.05 5982.89C978.352 5981.97 979.648 5981.97 979.95 5982.89L981.812 5988.55C981.911 5988.85 982.148 5989.09 982.45 5989.19L988.112 5991.05C989.028 5991.35 989.028 5992.65 988.112 5992.95L982.45 5994.81C982.148 5994.91 981.911 5995.15 981.812 5995.45L979.95 6001.11C979.648 6002.03 978.352 6002.03 978.05 6001.11L976.188 5995.45C976.089 5995.15 975.852 5994.91 975.55 5994.81L969.888 5992.95C968.972 5992.65 968.972 5991.35 969.888 5991.05L975.55 5989.19C975.852 5989.09 976.089 5988.85 976.188 5988.55L978.05 5982.89Z" fill="#2BB32A"/>
<path d="M2070.05 6018.89C2070.35 6017.97 2071.65 6017.97 2071.95 6018.89L2075.79 6030.57C2075.89 6030.87 2076.13 6031.11 2076.43 6031.21L2088.11 6035.05C2089.03 6035.35 2089.03 6036.65 2088.11 6036.95L2076.43 6040.79C2076.13 6040.89 2075.89 6041.13 2075.79 6041.43L2071.95 6053.11C2071.65 6054.03 2070.35 6054.03 2070.05 6053.11L2066.21 6041.43C2066.11 6041.13 2065.87 6040.89 2065.57 6040.79L2053.89 6036.95C2052.97 6036.65 2052.97 6035.35 2053.89 6035.05L2065.57 6031.21C2065.87 6031.11 2066.11 6030.87 2066.21 6030.57L2070.05 6018.89Z" fill="#2BB32A"/>
<path d="M2104.6 4564.33C2104.57 4563.36 2105.79 4562.92 2106.39 4563.68L2108.11 4565.88C2108.3 4566.13 2108.61 4566.27 2108.92 4566.27L2111.72 4566.19C2112.68 4566.16 2113.12 4567.38 2112.36 4567.97L2110.16 4569.69C2109.91 4569.89 2109.77 4570.19 2109.78 4570.51L2109.86 4573.3C2109.88 4574.26 2108.66 4574.7 2108.07 4573.94L2106.35 4571.75C2106.15 4571.49 2105.85 4571.35 2105.53 4571.36L2102.74 4571.44C2101.78 4571.47 2101.34 4570.25 2102.1 4569.65L2104.3 4567.93C2104.55 4567.74 2104.69 4567.43 2104.68 4567.12L2104.6 4564.33Z" fill="#2BB32A"/>
<path d="M1077.55 1886.89C1077.85 1885.97 1079.15 1885.97 1079.45 1886.89L1081.19 1892.17C1081.29 1892.48 1081.52 1892.71 1081.83 1892.81L1087.11 1894.55C1088.03 1894.85 1088.03 1896.15 1087.11 1896.45L1081.83 1898.19C1081.52 1898.29 1081.29 1898.52 1081.19 1898.83L1079.45 1904.11C1079.15 1905.03 1077.85 1905.03 1077.55 1904.11L1075.81 1898.83C1075.71 1898.52 1075.48 1898.29 1075.17 1898.19L1069.89 1896.45C1068.97 1896.15 1068.97 1894.85 1069.89 1894.55L1075.17 1892.81C1075.48 1892.71 1075.71 1892.48 1075.81 1892.17L1077.55 1886.89Z" fill="#2BB32A"/>
<defs>
<filter id="filter0_f_1_9" x="703" y="0" width="2092" height="2092" filterUnits="userSpaceOnUse" color-interpolation-filters="sRGB">
<feFlood flood-opacity="0" result="BackgroundImageFix"/>
<feBlend mode="normal" in="SourceGraphic" in2="BackgroundImageFix" result="shape"/>
<feGaussianBlur stdDeviation="400" result="effect1_foregroundBlur_1_9"/>
</filter>
<filter id="filter1_f_1_9" x="1129" y="1906" width="2092" height="2092" filterUnits="userSpaceOnUse" color-interpolation-filters="sRGB">
<feFlood flood-opacity="0" result="BackgroundImageFix"/>
<feBlend mode="normal" in="SourceGraphic" in2="BackgroundImageFix" result="shape"/>
<feGaussianBlur stdDeviation="400" result="effect1_foregroundBlur_1_9"/>
</filter>
<filter id="filter2_f_1_9" x="0" y="3855" width="2092" height="2092" filterUnits="userSpaceOnUse" color-interpolation-filters="sRGB">
<feFlood flood-opacity="0" result="BackgroundImageFix"/>
<feBlend mode="normal" in="SourceGraphic" in2="BackgroundImageFix" result="shape"/>
<feGaussianBlur stdDeviation="400" result="effect1_foregroundBlur_1_9"/>
</filter>
<filter id="filter3_f_1_9" x="48" y="3890" width="2092" height="2092" filterUnits="userSpaceOnUse" color-interpolation-filters="sRGB">
<feFlood flood-opacity="0" result="BackgroundImageFix"/>
<feBlend mode="normal" in="SourceGraphic" in2="BackgroundImageFix" result="shape"/>
<feGaussianBlur stdDeviation="400" result="effect1_foregroundBlur_1_9"/>
</filter>
<filter id="filter4_f_1_9" x="1195" y="4958" width="1986" height="1986" filterUnits="userSpaceOnUse" color-interpolation-filters="sRGB">
<feFlood flood-opacity="0" result="BackgroundImageFix"/>
<feBlend mode="normal" in="SourceGraphic" in2="BackgroundImageFix" result="shape"/>
<feGaussianBlur stdDeviation="400" result="effect1_foregroundBlur_1_9"/>
</filter>
</defs>
</svg>
