<svg width="3221" height="7026" viewBox="0 0 3221 7026" fill="none" xmlns="http://www.w3.org/2000/svg">
<path d="M1757.5 1.10156C1858 -0.973139 2059.86 27.0503 1936.66 242.378C1782.65 511.539 2328.28 721.973 2240.27 511.539C2152.27 301.105 1483.43 540.902 2024.66 898.151C2457.64 1183.95 1606.64 1258.66 1127.01 1260.29C959.149 1270.9 701.509 1377.28 1013.86 1717.96C1404.29 2143.81 2110.71 2324.92 2067.68 2584.34C2024.66 2843.77 480.643 3972.09 1013.86 3972.09C2187 3972.09 1118.14 4624.56 1579 4845.93C1719.55 4913.44 2313.95 4799.15 2283 5227.55C2225.34 6025.72 806.2 5646.77 963 6084.79C1159 6632.33 2283 6836.96 2313 7025" stroke="#2BB32A" stroke-width="1.5" stroke-linecap="square"/>
<g filter="url(#filter0_f_1_9)">
<ellipse cx="2175" cy="2650.27" rx="246" ry="340.134" fill="#2BB32A"/>
</g>
<g filter="url(#filter1_f_1_9)">
<ellipse cx="1046" cy="5345.07" rx="246" ry="340.134" fill="#2BB32A"/>
</g>
<g filter="url(#filter2_f_1_9)">
<ellipse cx="1094" cy="5393.46" rx="246" ry="340.134" fill="#2BB32A"/>
</g>
<path d="M1381.53 735.234C1381.77 734.21 1383.23 734.21 1383.47 735.234L1388.2 755.119C1388.27 755.42 1388.48 755.67 1388.76 755.798L1404 762.727C1404.78 763.082 1404.78 764.192 1404 764.547L1388.76 771.476C1388.48 771.604 1388.27 771.854 1388.2 772.155L1383.47 792.039C1383.23 793.064 1381.77 793.064 1381.53 792.039L1376.8 772.155C1376.73 771.854 1376.52 771.604 1376.24 771.476L1361 764.547C1360.22 764.192 1360.22 763.082 1361 762.727L1376.24 755.798C1376.52 755.67 1376.73 755.42 1376.8 755.119L1381.53 735.234Z" fill="#2BB32A"/>
<path d="M1925.87 217.373C1925.97 216.303 1927.38 215.949 1927.75 216.898L1935 235.343C1935.11 235.624 1935.35 235.821 1935.64 235.876L1951.51 238.913C1952.32 239.069 1952.47 240.182 1951.75 240.725L1937.67 251.303C1937.42 251.497 1937.25 251.796 1937.21 252.113L1935.13 272.908C1935.02 273.978 1933.62 274.332 1933.25 273.383L1926 254.938C1925.89 254.658 1925.65 254.46 1925.36 254.405L1909.49 251.368C1908.68 251.212 1908.53 250.099 1909.25 249.556L1923.33 238.978C1923.58 238.784 1923.75 238.485 1923.79 238.169L1925.87 217.373Z" fill="#2BB32A"/>
<path d="M2024.56 1121.58C2025.21 1120.93 2026.16 1121.89 2025.92 1122.93L2022.02 1139.74C2021.95 1140.08 2022 1140.45 2022.16 1140.76L2029.78 1155.36C2030.26 1156.27 2029.68 1157.37 2028.91 1157.03L2016.5 1151.54C2016.24 1151.42 2015.97 1151.47 2015.76 1151.68L2005.41 1162.01C2004.77 1162.65 2003.82 1161.7 2004.06 1160.65L2007.95 1143.84C2008.03 1143.51 2007.98 1143.13 2007.82 1142.83L2000.19 1128.22C1999.72 1127.32 2000.3 1126.22 2001.07 1126.56L2013.48 1132.05C2013.74 1132.17 2014.01 1132.11 2014.22 1131.91L2024.56 1121.58Z" fill="#2BB32A"/>
<path d="M1711.9 1967.23C1711.62 1966.2 1712.51 1965.21 1713.18 1965.8L1721.26 1973.06C1721.48 1973.26 1721.75 1973.29 1722.01 1973.16L1731.2 1968.38C1731.95 1967.99 1732.59 1969.08 1732.15 1970.01L1726.8 1981.4C1726.65 1981.72 1726.62 1982.1 1726.71 1982.43L1730.1 1994.91C1730.38 1995.94 1729.49 1996.93 1728.83 1996.33L1720.74 1989.07C1720.52 1988.88 1720.25 1988.84 1719.99 1988.97L1710.8 1993.75C1710.05 1994.14 1709.41 1993.05 1709.85 1992.12L1715.2 1980.73C1715.35 1980.42 1715.38 1980.04 1715.29 1979.7L1711.9 1967.23Z" fill="#2BB32A"/>
<path d="M1163.71 4162.59C1164.34 4161.93 1165.32 4162.87 1165.09 4163.92L1163.25 4172.41C1163.18 4172.75 1163.23 4173.12 1163.4 4173.43L1167.42 4180.84C1167.91 4181.73 1167.35 4182.83 1166.57 4182.51L1160.15 4179.85C1159.89 4179.74 1159.62 4179.8 1159.42 4180.01L1154.29 4185.33C1153.65 4185.99 1152.68 4185.05 1152.91 4184L1154.75 4175.51C1154.82 4175.18 1154.77 4174.8 1154.6 4174.5L1150.58 4167.08C1150.09 4166.19 1150.65 4165.09 1151.42 4165.41L1157.84 4168.07C1158.11 4168.18 1158.38 4168.12 1158.58 4167.91L1163.71 4162.59Z" fill="#2BB32A"/>
<path d="M1299.49 1664.54C1299.99 1663.71 1301.24 1664.38 1301.2 1665.46L1300.86 1674.02C1300.85 1674.35 1300.97 1674.69 1301.2 1674.95L1306.48 1680.96C1307.11 1681.68 1306.79 1682.8 1305.98 1682.74L1299.14 1682.23C1298.86 1682.21 1298.6 1682.35 1298.45 1682.6L1294.5 1689.22C1294 1690.06 1292.76 1689.38 1292.8 1688.3L1293.13 1679.74C1293.15 1679.41 1293.02 1679.07 1292.8 1678.82L1287.52 1672.8C1286.89 1672.08 1287.21 1670.96 1288.02 1671.02L1294.85 1671.53C1295.14 1671.55 1295.4 1671.42 1295.55 1671.16L1299.49 1664.54Z" fill="#2BB32A"/>
<path d="M1398.61 2631.32C1398.55 2630.23 1399.78 2629.53 1400.29 2630.35L1404.35 2636.86C1404.51 2637.11 1404.77 2637.24 1405.05 2637.21L1411.87 2636.49C1412.68 2636.41 1413.02 2637.53 1412.4 2638.26L1407.23 2644.43C1407.01 2644.69 1406.89 2645.04 1406.91 2645.37L1407.39 2653.94C1407.45 2655.02 1406.22 2655.73 1405.71 2654.91L1401.65 2648.39C1401.49 2648.14 1401.23 2648.01 1400.94 2648.05L1394.13 2648.77C1393.32 2648.85 1392.98 2647.73 1393.6 2646.99L1398.77 2640.82C1398.99 2640.57 1399.11 2640.22 1399.09 2639.89L1398.61 2631.32Z" fill="#2BB32A"/>
<path d="M1012.52 2963.39C1012.93 2962.43 1014.34 2962.94 1014.36 2964.05L1014.8 2985.9C1014.81 2986.21 1014.95 2986.52 1015.18 2986.75L1027.75 2998.93C1028.38 2999.54 1028.18 3000.58 1027.42 3000.69L1012.15 3002.89C1011.87 3002.93 1011.64 3003.11 1011.52 3003.38L1003.46 3022.18C1003.05 3023.13 1001.64 3022.63 1001.62 3021.52L1001.18 2999.67C1001.17 2999.36 1001.03 2999.05 1000.8 2998.82L988.233 2986.64C987.602 2986.03 987.797 2984.99 988.563 2984.88L1003.83 2982.68C1004.11 2982.64 1004.34 2982.46 1004.45 2982.19L1012.52 2963.39Z" fill="#2BB32A"/>
<path d="M2079.18 3184.45C2079.22 3183.37 2080.56 3182.85 2080.99 3183.76L2090.1 3202.65C2090.23 3202.92 2090.47 3203.09 2090.76 3203.11L2107.92 3204.25C2108.74 3204.3 2108.97 3205.42 2108.28 3206.05L2093.99 3219.22C2093.74 3219.44 2093.6 3219.76 2093.58 3220.08L2092.8 3242.77C2092.76 3243.85 2091.42 3244.36 2090.99 3243.46L2081.88 3224.56C2081.75 3224.29 2081.5 3224.12 2081.21 3224.1L2064.05 3222.97C2063.23 3222.91 2063.01 3221.8 2063.69 3221.17L2077.99 3208C2078.23 3207.77 2078.38 3207.45 2078.39 3207.13L2079.18 3184.45Z" fill="#2BB32A"/>
<path d="M1569.03 4507.12C1569.27 4506.1 1570.73 4506.1 1570.97 4507.12L1571.87 4510.88C1571.94 4511.18 1572.14 4511.43 1572.43 4511.56L1576 4513.18C1576.78 4513.54 1576.78 4514.65 1576 4515.01L1572.43 4516.63C1572.14 4516.76 1571.94 4517.01 1571.87 4517.31L1570.97 4521.07C1570.73 4522.09 1569.27 4522.09 1569.03 4521.07L1568.13 4517.31C1568.06 4517.01 1567.86 4516.76 1567.57 4516.63L1564 4515.01C1563.22 4514.65 1563.22 4513.54 1564 4513.18L1567.57 4511.56C1567.86 4511.43 1568.06 4511.18 1568.13 4510.88L1569.03 4507.12Z" fill="#2BB32A"/>
<path d="M1676.94 3655.14C1677.39 3654.25 1678.71 3654.8 1678.73 3655.89L1678.8 3659.99C1678.81 3660.32 1678.95 3660.64 1679.19 3660.88L1682.23 3663.82C1682.9 3664.46 1682.65 3665.58 1681.83 3665.61L1678.13 3665.74C1677.84 3665.74 1677.59 3665.91 1677.45 3666.17L1675.75 3669.54C1675.3 3670.43 1673.98 3669.87 1673.96 3668.79L1673.89 3664.68C1673.88 3664.36 1673.74 3664.03 1673.5 3663.8L1670.46 3660.86C1669.79 3660.21 1670.04 3659.09 1670.86 3659.07L1674.56 3658.94C1674.85 3658.93 1675.1 3658.77 1675.24 3658.5L1676.94 3655.14Z" fill="#2BB32A"/>
<path d="M1854.03 2771.89C1854.27 2770.86 1855.73 2770.86 1855.97 2771.89L1858.85 2783.97C1858.92 2784.27 1859.12 2784.52 1859.41 2784.65L1869 2789.01C1869.78 2789.37 1869.78 2790.48 1869 2790.83L1859.41 2795.19C1859.12 2795.32 1858.92 2795.57 1858.85 2795.87L1855.97 2807.95C1855.73 2808.98 1854.27 2808.98 1854.03 2807.95L1851.15 2795.87C1851.08 2795.57 1850.88 2795.32 1850.59 2795.19L1841 2790.83C1840.22 2790.48 1840.22 2789.37 1841 2789.01L1850.59 2784.65C1850.88 2784.52 1851.08 2784.27 1851.15 2783.97L1854.03 2771.89Z" fill="#2BB32A"/>
<path d="M2206.26 2531.48C2206.13 2530.41 2207.24 2529.58 2207.81 2530.33L2221.55 2548.44C2221.72 2548.68 2221.99 2548.77 2222.27 2548.71L2241.43 2544.06C2242.23 2543.86 2242.66 2544.98 2242.1 2545.8L2228.68 2565.26C2228.48 2565.54 2228.39 2565.9 2228.44 2566.24L2231.72 2592.08C2231.85 2593.16 2230.74 2593.98 2230.17 2593.23L2216.43 2575.12C2216.25 2574.89 2215.99 2574.79 2215.71 2574.86L2196.55 2579.51C2195.75 2579.7 2195.31 2578.58 2195.88 2577.77L2209.3 2558.3C2209.5 2558.02 2209.58 2557.66 2209.54 2557.33L2206.26 2531.48Z" fill="#2BB32A"/>
<path d="M1068.03 4908.09C1068.27 4907.07 1069.73 4907.07 1069.97 4908.09L1075.82 4932.66C1075.89 4932.96 1076.09 4933.21 1076.37 4933.34L1095 4941.81C1095.78 4942.16 1095.78 4943.27 1095 4943.63L1076.37 4952.1C1076.09 4952.22 1075.89 4952.47 1075.82 4952.78L1069.97 4977.34C1069.73 4978.37 1068.27 4978.37 1068.03 4977.34L1062.18 4952.78C1062.11 4952.47 1061.91 4952.22 1061.62 4952.1L1043 4943.63C1042.22 4943.27 1042.22 4942.16 1043 4941.81L1061.62 4933.34C1061.91 4933.21 1062.11 4932.96 1062.18 4932.66L1068.03 4908.09Z" fill="#2BB32A"/>
<path d="M1100.03 5392.02C1100.27 5391 1101.73 5391 1101.97 5392.02L1107.82 5416.59C1107.89 5416.89 1108.09 5417.14 1108.38 5417.27L1127 5425.74C1127.78 5426.09 1127.78 5427.2 1127 5427.56L1108.38 5436.03C1108.09 5436.16 1107.89 5436.41 1107.82 5436.71L1101.97 5461.27C1101.73 5462.3 1100.27 5462.3 1100.03 5461.27L1094.18 5436.71C1094.11 5436.41 1093.91 5436.16 1093.62 5436.03L1075 5427.56C1074.22 5427.2 1074.22 5426.09 1075 5425.74L1093.62 5417.27C1093.91 5417.14 1094.11 5416.89 1094.18 5416.59L1100.03 5392.02Z" fill="#2BB32A"/>
<path d="M1754.03 5635.37C1754.27 5634.35 1755.73 5634.35 1755.97 5635.37L1761.82 5659.94C1761.89 5660.24 1762.09 5660.49 1762.38 5660.62L1781 5669.09C1781.78 5669.44 1781.78 5670.55 1781 5670.91L1762.38 5679.37C1762.09 5679.5 1761.89 5679.75 1761.82 5680.05L1755.97 5704.62C1755.73 5705.65 1754.27 5705.65 1754.03 5704.62L1748.18 5680.05C1748.11 5679.75 1747.91 5679.5 1747.62 5679.37L1729 5670.91C1728.22 5670.55 1728.22 5669.44 1729 5669.09L1747.62 5660.62C1747.91 5660.49 1748.11 5660.24 1748.18 5659.94L1754.03 5635.37Z" fill="#2BB32A"/>
<path d="M2167.03 5441.8C2167.27 5440.77 2168.73 5440.77 2168.97 5441.8L2169.87 5445.56C2169.94 5445.86 2170.14 5446.11 2170.43 5446.24L2174 5447.86C2174.78 5448.22 2174.78 5449.33 2174 5449.68L2170.43 5451.31C2170.14 5451.43 2169.94 5451.68 2169.87 5451.98L2168.97 5455.74C2168.73 5456.77 2167.27 5456.77 2167.03 5455.74L2166.13 5451.98C2166.06 5451.68 2165.86 5451.43 2165.57 5451.31L2162 5449.68C2161.22 5449.33 2161.22 5448.22 2162 5447.86L2165.57 5446.24C2165.86 5446.11 2166.06 5445.86 2166.13 5445.56L2167.03 5441.8Z" fill="#2BB32A"/>
<path d="M1418.03 6564.52C1418.27 6563.49 1419.73 6563.49 1419.97 6564.52L1425.82 6589.08C1425.89 6589.38 1426.09 6589.64 1426.38 6589.76L1445 6598.23C1445.78 6598.59 1445.78 6599.7 1445 6600.05L1426.38 6608.52C1426.09 6608.65 1425.89 6608.9 1425.82 6609.2L1419.97 6633.77C1419.73 6634.79 1418.27 6634.79 1418.03 6633.77L1412.18 6609.2C1412.11 6608.9 1411.91 6608.65 1411.62 6608.52L1393 6600.05C1392.22 6599.7 1392.22 6598.59 1393 6598.23L1411.62 6589.76C1411.91 6589.64 1412.11 6589.38 1412.18 6589.08L1418.03 6564.52Z" fill="#2BB32A"/>
<path d="M1362.03 6614.29C1362.27 6613.27 1363.73 6613.27 1363.97 6614.29L1369.82 6638.86C1369.89 6639.16 1370.09 6639.41 1370.38 6639.54L1389 6648.01C1389.78 6648.36 1389.78 6649.47 1389 6649.83L1370.38 6658.3C1370.09 6658.42 1369.89 6658.67 1369.82 6658.98L1363.97 6683.54C1363.73 6684.57 1362.27 6684.57 1362.03 6683.54L1356.18 6658.98C1356.11 6658.67 1355.91 6658.42 1355.62 6658.3L1337 6649.83C1336.22 6649.47 1336.22 6648.36 1337 6648.01L1355.62 6639.54C1355.91 6639.41 1356.11 6639.16 1356.18 6638.86L1362.03 6614.29Z" fill="#2BB32A"/>
<path d="M978.027 6841.05C978.271 6840.02 979.729 6840.02 979.973 6841.05L981.857 6848.97C981.928 6849.27 982.134 6849.52 982.415 6849.65L988.998 6852.64C989.78 6853 989.78 6854.11 988.998 6854.46L982.415 6857.45C982.134 6857.58 981.928 6857.83 981.857 6858.13L979.973 6866.05C979.729 6867.08 978.271 6867.08 978.027 6866.05L976.143 6858.13C976.072 6857.83 975.866 6857.58 975.585 6857.45L969.002 6854.46C968.22 6854.11 968.22 6853 969.002 6852.64L975.585 6849.65C975.866 6849.52 976.072 6849.27 976.143 6848.97L978.027 6841.05Z" fill="#2BB32A"/>
<path d="M2070.03 6890.82C2070.27 6889.8 2071.73 6889.8 2071.97 6890.82L2075.84 6907.07C2075.91 6907.37 2076.11 6907.62 2076.4 6907.75L2089 6913.48C2089.78 6913.83 2089.78 6914.94 2089 6915.3L2076.4 6921.03C2076.11 6921.16 2075.91 6921.41 2075.84 6921.71L2071.97 6937.95C2071.73 6938.97 2070.27 6938.97 2070.03 6937.95L2066.16 6921.71C2066.09 6921.41 2065.89 6921.16 2065.6 6921.03L2053 6915.3C2052.22 6914.94 2052.22 6913.83 2053 6913.48L2065.6 6907.75C2065.89 6907.62 2066.09 6907.37 2066.16 6907.07L2070.03 6890.82Z" fill="#2BB32A"/>
<path d="M2104.6 4879.44C2104.58 4878.36 2105.85 4877.72 2106.33 4878.58L2108.19 4881.86C2108.33 4882.12 2108.59 4882.26 2108.88 4882.25L2112.56 4882.11C2113.38 4882.07 2113.67 4883.19 2113.03 4883.89L2110.12 4887.03C2109.9 4887.27 2109.77 4887.61 2109.77 4887.94L2109.86 4892.1C2109.88 4893.18 2108.61 4893.82 2108.12 4892.96L2106.27 4889.68C2106.12 4889.43 2105.87 4889.28 2105.58 4889.29L2101.9 4889.44C2101.08 4889.47 2100.79 4888.35 2101.43 4887.65L2104.33 4884.51C2104.56 4884.27 2104.69 4883.93 2104.68 4883.6L2104.6 4879.44Z" fill="#2BB32A"/>
<path d="M1077.53 1177.68C1077.77 1176.66 1079.23 1176.66 1079.47 1177.68L1081.23 1185.08C1081.3 1185.38 1081.51 1185.64 1081.79 1185.76L1088 1188.59C1088.78 1188.94 1088.78 1190.05 1088 1190.41L1081.79 1193.23C1081.51 1193.36 1081.3 1193.61 1081.23 1193.91L1079.47 1201.31C1079.23 1202.33 1077.77 1202.33 1077.53 1201.31L1075.77 1193.91C1075.7 1193.61 1075.49 1193.36 1075.21 1193.23L1069 1190.41C1068.22 1190.05 1068.22 1188.94 1069 1188.59L1075.21 1185.76C1075.49 1185.64 1075.7 1185.38 1075.77 1185.08L1077.53 1177.68Z" fill="#2BB32A"/>
<defs>
<filter id="filter0_f_1_9" x="1129" y="1510.14" width="2092" height="2280.27" filterUnits="userSpaceOnUse" color-interpolation-filters="sRGB">
<feFlood flood-opacity="0" result="BackgroundImageFix"/>
<feBlend mode="normal" in="SourceGraphic" in2="BackgroundImageFix" result="shape"/>
<feGaussianBlur stdDeviation="400" result="effect1_foregroundBlur_1_9"/>
</filter>
<filter id="filter1_f_1_9" x="0" y="4204.94" width="2092" height="2280.27" filterUnits="userSpaceOnUse" color-interpolation-filters="sRGB">
<feFlood flood-opacity="0" result="BackgroundImageFix"/>
<feBlend mode="normal" in="SourceGraphic" in2="BackgroundImageFix" result="shape"/>
<feGaussianBlur stdDeviation="400" result="effect1_foregroundBlur_1_9"/>
</filter>
<filter id="filter2_f_1_9" x="48" y="4253.33" width="2092" height="2280.27" filterUnits="userSpaceOnUse" color-interpolation-filters="sRGB">
<feFlood flood-opacity="0" result="BackgroundImageFix"/>
<feBlend mode="normal" in="SourceGraphic" in2="BackgroundImageFix" result="shape"/>
<feGaussianBlur stdDeviation="400" result="effect1_foregroundBlur_1_9"/>
</filter>
</defs>
</svg>
